<svg width="119" height="27" viewBox="0 0 119 27" fill="none" xmlns="http://www.w3.org/2000/svg">
<path d="M0.772 26V0.872H6.244V21.14H15.82V26H0.772ZM38.4497 26.432C36.7937 26.432 35.2817 26.156 33.9137 25.604C32.5457 25.052 31.3817 24.236 30.4217 23.156C29.4617 22.052 28.7177 20.696 28.1897 19.088C27.6617 17.456 27.3977 15.572 27.3977 13.436C27.3977 11.3 27.6617 9.428 28.1897 7.82C28.7177 6.188 29.4617 4.832 30.4217 3.752C31.3817 2.648 32.5457 1.82 33.9137 1.268C35.2817 0.715999 36.7937 0.439999 38.4497 0.439999C40.1057 0.439999 41.6177 0.715999 42.9857 1.268C44.3537 1.82 45.5177 2.648 46.4777 3.752C47.4377 4.832 48.1817 6.188 48.7097 7.82C49.2377 9.428 49.5017 11.3 49.5017 13.436C49.5017 15.572 49.2377 17.456 48.7097 19.088C48.1817 20.696 47.4377 22.052 46.4777 23.156C45.5177 24.236 44.3537 25.052 42.9857 25.604C41.6177 26.156 40.1057 26.432 38.4497 26.432ZM38.4497 21.572C40.1057 21.572 41.3897 21.032 42.3017 19.952C43.2377 18.872 43.7057 17.324 43.7057 15.308V11.564C43.7057 9.548 43.2377 8 42.3017 6.92C41.3897 5.84 40.1057 5.3 38.4497 5.3C36.7937 5.3 35.4977 5.84 34.5617 6.92C33.6497 8 33.1937 9.548 33.1937 11.564V15.308C33.1937 17.324 33.6497 18.872 34.5617 19.952C35.4977 21.032 36.7937 21.572 38.4497 21.572ZM78.5247 22.004H78.3447C78.1527 23.276 77.5047 24.332 76.4007 25.172C75.2967 26.012 73.7967 26.432 71.9007 26.432C70.4607 26.432 69.1167 26.156 67.8687 25.604C66.6207 25.052 65.5287 24.236 64.5927 23.156C63.6567 22.076 62.9247 20.732 62.3967 19.124C61.8687 17.516 61.6047 15.656 61.6047 13.544C61.6047 11.432 61.8807 9.56 62.4327 7.928C62.9847 6.296 63.7527 4.928 64.7367 3.824C65.7447 2.72 66.9447 1.88 68.3367 1.304C69.7287 0.727998 71.2767 0.439999 72.9807 0.439999C75.2367 0.439999 77.1807 0.931999 78.8127 1.916C80.4447 2.876 81.7287 4.328 82.6647 6.272L78.2007 8.828C77.8167 7.844 77.2167 7.016 76.4007 6.344C75.5847 5.648 74.4447 5.3 72.9807 5.3C71.2767 5.3 69.9207 5.792 68.9127 6.776C67.9047 7.76 67.4007 9.308 67.4007 11.42V15.452C67.4007 17.54 67.9047 19.088 68.9127 20.096C69.9207 21.08 71.2767 21.572 72.9807 21.572C73.6527 21.572 74.2887 21.5 74.8887 21.356C75.4887 21.188 76.0167 20.948 76.4727 20.636C76.9287 20.3 77.2767 19.904 77.5167 19.448C77.7807 18.992 77.9127 18.452 77.9127 17.828V16.568H73.2327V11.996H83.1327V26H78.5247V22.004ZM107.04 26.432C105.384 26.432 103.872 26.156 102.504 25.604C101.136 25.052 99.9715 24.236 99.0115 23.156C98.0515 22.052 97.3075 20.696 96.7795 19.088C96.2515 17.456 95.9875 15.572 95.9875 13.436C95.9875 11.3 96.2515 9.428 96.7795 7.82C97.3075 6.188 98.0515 4.832 99.0115 3.752C99.9715 2.648 101.136 1.82 102.504 1.268C103.872 0.715999 105.384 0.439999 107.04 0.439999C108.696 0.439999 110.208 0.715999 111.576 1.268C112.944 1.82 114.108 2.648 115.068 3.752C116.028 4.832 116.772 6.188 117.3 7.82C117.828 9.428 118.092 11.3 118.092 13.436C118.092 15.572 117.828 17.456 117.3 19.088C116.772 20.696 116.028 22.052 115.068 23.156C114.108 24.236 112.944 25.052 111.576 25.604C110.208 26.156 108.696 26.432 107.04 26.432ZM107.04 21.572C108.696 21.572 109.98 21.032 110.892 19.952C111.828 18.872 112.296 17.324 112.296 15.308V11.564C112.296 9.548 111.828 8 110.892 6.92C109.98 5.84 108.696 5.3 107.04 5.3C105.384 5.3 104.088 5.84 103.152 6.92C102.24 8 101.784 9.548 101.784 11.564V15.308C101.784 17.324 102.24 18.872 103.152 19.952C104.088 21.032 105.384 21.572 107.04 21.572Z" fill="black"/>
</svg>
